<?xml version="1.0" encoding="UTF-8"?> <svg xmlns="http://www.w3.org/2000/svg" id="Layer_1" viewBox="0 0 446.29 133"><defs><style> .cls-1 { fill: #231300; } </style></defs><path class="cls-1" d="M196.33,21.81c-2.1-5.94-5.35-10.23-9.74-12.9-4.39-2.66-9.56-3.99-15.49-3.99s-11.1,1.33-15.49,3.99c-4.39,2.66-7.64,6.96-9.74,12.9l-37.48,105.76h27.46s32.09-90.73,32.12-90.8c.44-1.32,1.67-2.28,3.13-2.28s2.8,1.04,3.18,2.44c0,.02,32.07,90.64,32.07,90.64h27.46l-37.48-105.76Z"></path><path class="cls-1" d="M403.74,21.81c-2.1-5.94-5.35-10.23-9.74-12.9-4.39-2.66-9.56-3.99-15.49-3.99s-11.1,1.33-15.49,3.99c-4.39,2.66-7.64,6.96-9.74,12.9l-37.48,105.76h27.46s32.09-90.73,32.12-90.8c.44-1.32,1.67-2.28,3.13-2.28s2.8,1.04,3.18,2.44c0,.02,32.07,90.64,32.07,90.64h27.46l-37.48-105.76Z"></path><path class="cls-1" d="M320.8,101.65l-54.44.02c-6.26,0-11.34-5.08-11.34-11.34V4.92h-25.98v91.59c0,17.15,13.9,31.06,31.06,31.06h51.51s9.19-25.92,9.19-25.92Z"></path><path class="cls-1" d="M37.11,101.59c-5.72,0-7.42-7.79-2.21-10.17l61.27-27.97c29.96-13.67,20.21-58.52-12.73-58.52H5.76v26h77.83c4.96,0,6.43,6.76,1.92,8.82l-61.33,27.99c-30.63,13.98-20.66,59.84,13.01,59.84h67.02l9.21-25.99H37.11Z"></path></svg> 